<svg width="32" height="32" viewBox="0 0 32 32" fill="none" xmlns="http://www.w3.org/2000/svg">
  <rect width="32" height="32" rx="8" fill="#0055A4"/>
  <path d="M8.5 16C8.5 12.4101 11.4101 9.5 15 9.5C18.5899 9.5 21.5 12.4101 21.5 16C21.5 19.5899 18.5899 22.5 15 22.5C11.4101 22.5 8.5 19.5899 8.5 16Z" fill="white"/>
  <path d="M15 12C13.067 12 11.5 13.567 11.5 15.5C11.5 17.433 13.067 19 15 19C16.933 19 18.5 17.433 18.5 15.5C18.5 13.567 16.933 12 15 12ZM15 17.5C13.8954 17.5 13 16.6046 13 15.5C13 14.3954 13.8954 13.5 15 13.5C16.1046 13.5 17 14.3954 17 15.5C17 16.6046 16.1046 17.5 15 17.5Z" fill="#0055A4"/>
  <text x="16" y="28" text-anchor="middle" font-size="7" fill="white" font-family="Arial, Helvetica, sans-serif">BCA</text>
</svg>
